P2
# Created by GIMP version 2.10.32 PNM plug-in
118 116
255
135
136
137
138
131
127
124
120
110
96
80
67
62
62
65
68
71
72
74
75
73
80
74
79
73
77
82
76
78
84
87
86
90
92
97
98
98
101
99
102
98
103
104
101
102
106
104
106
106
106
105
106
104
106
107
109
109
109
109
105
108
107
109
106
107
107
107
107
104
102
104
105
104
103
106
105
106
107
105
108
105
105
101
105
105
108
105
104
105
108
107
104
108
108
104
105
106
104
103
104
103
102
105
104
104
105
102
104
104
101
100
109
103
100
105
103
100
102
135
137
134
135
131
131
125
116
110
98
83
67
60
60
64
66
71
71
74
78
77
78
78
76
77
76
75
77
82
84
86
89
90
95
95
94
97
98
100
101
101
103
104
104
105
106
106
105
106
105
108
105
105
103
106
106
105
109
106
106
105
108
104
106
107
105
104
105
103
104
104
104
104
108
106
105
104
105
106
107
102
101
103
100
104
102
101
101
102
106
103
103
105
109
108
105
107
104
105
105
103
104
102
101
104
104
101
104
105
103
101
100
100
102
99
100
99
104
136
135
134
132
128
129
126
117
113
95
83
68
59
64
66
68
75
77
77
73
79
78
75
72
75
75
77
78
78
83
84
90
93
95
94
96
100
101
101
99
101
103
104
104
105
105
102
103
104
103
105
103
107
101
107
104
107
107
106
106
105
108
103
105
107
105
103
106
104
105
103
107
106
104
107
104
104
103
103
103
103
101
99
102
101
101
102
101
102
102
102
103
105
103
104
104
105
107
105
105
106
106
105
103
102
106
102
103
106
102
101
99
99
98
100
99
100
101
134
133
134
131
128
129
125
114
114
97
81
68
62
58
67
67
75
73
72
76
76
75
78
78
78
72
78
73
78
79
85
87
91
91
93
93
96
99
105
101
104
104
103
105
104
105
102
104
102
103
102
103
100
103
102
107
104
104
104
105
109
106
104
105
106
106
103
105
103
104
104
108
104
107
105
104
101
103
104
103
103
101
104
99
101
99
102
102
101
101
104
99
106
102
106
103
104
105
104
105
104
104
103
105
105
105
105
102
100
101
101
101
101
99
98
97
100
101
132
132
129
125
125
126
123
118
109
96
80
65
59
63
65
71
70
71
74
74
72
72
74
74
74
74
75
80
81
83
83
88
90
91
95
93
93
95
97
99
99
100
100
100
100
102
101
97
100
103
104
101
102
102
104
106
104
102
104
102
102
103
104
105
102
103
102
105
103
104
102
103
105
103
99
99
102
100
99
98
102
99
101
100
99
100
100
98
98
93
100
101
99
103
105
102
106
102
103
102
102
99
100
100
98
101
98
101
103
100
99
100
98
99
98
98
101
98
130
130
127
123
127
129
120
117
112
98
79
67
59
62
61
67
71
73
73
77
77
75
73
73
70
72
74
77
81
82
83
88
89
92
92
90
97
94
94
102
100
97
99
102
99
103
102
98
99
100
104
100
99
103
102
102
103
103
101
99
102
103
104
101
103
100
103
102
104
104
103
102
101
100
99
99
95
100
94
96
97
99
99
99
98
100
98
96
97
96
100
98
100
100
102
100
101
103
105
106
101
101
102
102
101
102
99
102
102
100
96
100
99
95
96
96
98
100
130
129
128
124
129
129
129
122
110
99
82
67
61
57
64
73
71
70
76
75
74
75
75
75
71
78
75
76
74
80
82
87
89
89
93
92
93
94
95
95
98
99
97
104
101
101
98
99
100
102
102
100
99
101
101
103
103
104
104
101
97
105
102
103
100
99
99
104
103
102
104
100
102
98
96
100
94
95
96
97
95
99
101
99
97
97
98
95
96
95
94
98
97
99
99
99
99
102
103
103
101
100
100
103
103
102
102
99
102
98
101
98
96
95
97
98
97
99
130
124
123
126
128
129
124
119
109
96
81
67
59
59
67
59
67
72
72
73
74
76
73
70
72
71
72
76
75
78
81
87
92
93
92
91
93
93
94
96
97
101
95
102
97
100
97
99
98
101
100
99
101
101
101
104
102
106
104
103
103
99
101
103
102
103
102
104
100
101
98
101
104
101
101
95
93
93
91
93
93
98
96
98
98
96
95
98
98
94
96
98
100
97
99
96
101
98
102
101
103
103
102
102
97
104
97
102
99
96
100
97
97
93
96
95
97
99
126
125
124
124
125
127
122
119
110
97
83
67
58
63
62
62
67
72
73
72
72
74
70
72
71
68
71
74
75
80
80
86
87
89
89
92
95
95
98
93
99
99
100
99
100
103
103
99
99
99
100
99
101
101
104
103
103
104
102
101
98
102
101
102
102
100
101
100
103
103
98
104
97
99
97
97
96
95
95
94
94
95
96
97
96
94
93
92
95
97
96
94
96
100
98
100
97
101
98
100
100
101
97
100
102
97
98
98
99
96
101
94
99
96
94
98
96
99
124
121
123
123
124
127
124
117
108
98
82
67
61
58
64
65
72
70
74
73
69
70
72
72
72
72
71
70
76
76
80
84
87
87
90
91
88
92
95
94
95
96
95
98
94
99
97
98
95
99
99
99
100
99
100
100
104
99
100
99
97
99
101
102
98
99
99
96
101
97
98
97
101
98
97
95
95
93
95
97
94
98
99
98
95
93
94
90
95
94
94
92
94
98
96
95
97
98
97
98
100
98
98
101
99
100
100
97
99
96
98
96
97
97
96
97
97
100
125
124
127
125
127
124
123
117
108
100
81
64
61
62
56
67
67
70
74
75
72
73
74
69
72
68
71
71
74
85
80
78
89
85
89
86
90
89
90
93
95
92
101
97
97
99
100
100
97
99
100
96
100
101
103
104
99
102
101
99
100
98
99
100
100
100
101
99
100
102
99
102
97
97
99
96
95
94
94
98
97
91
95
99
93
93
92
96
93
90
91
93
97
94
97
96
98
95
98
98
98
101
97
98
100
100
99
101
99
98
97
99
98
100
99
98
96
99
130
125
124
126
129
127
124
117
108
97
79
65
57
57
63
63
68
71
74
71
69
73
74
70
69
73
72
73
74
77
83
83
85
91
88
90
91
95
91
94
91
96
89
96
96
95
97
98
97
96
99
101
100
98
100
99
102
101
100
103
103
103
101
100
100
99
99
99
98
101
101
99
99
98
101
99
99
97
95
96
95
95
97
93
91
93
89
90
89
89
90
93
94
93
95
95
96
95
97
97
96
98
100
102
98
100
98
97
97
99
97
98
97
96
94
95
98
96
129
124
125
126
124
125
122
116
107
98
77
65
57
57
61
67
67
70
72
73
75
69
72
71
68
69
73
71
78
79
81
83
86
90
93
91
92
92
93
96
94
94
98
98
97
97
96
95
96
98
100
102
99
98
102
99
97
99
101
101
99
103
97
98
102
101
102
100
100
104
99
97
98
97
99
99
100
101
96
99
102
109
124
116
121
113
118
110
108
102
89
85
87
91
90
91
93
94
94
98
95
99
99
99
98
99
97
99
97
96
97
99
96
96
96
95
96
96
129
125
122
123
126
126
121
116
109
97
76
61
54
56
57
66
68
68
70
69
72
71
70
69
71
73
75
73
79
81
80
86
87
88
89
91
91
94
93
96
93
97
93
98
97
96
98
97
98
99
104
99
98
102
101
102
100
99
99
97
103
98
101
102
101
99
98
100
97
102
104
98
99
101
103
103
111
104
111
112
124
128
133
132
132
132
143
145
145
143
141
124
115
94
86
86
87
93
92
96
94
95
95
96
100
97
94
93
96
97
92
96
95
99
97
97
96
94
129
126
126
127
128
125
126
118
108
98
79
65
57
56
58
66
64
68
70
70
74
71
69
73
72
76
75
76
81
83
83
83
87
93
91
91
91
92
97
96
97
96
100
96
95
96
102
101
101
100
99
101
101
103
99
98
98
100
100
98
98
108
99
101
101
99
102
101
98
101
106
115
109
112
116
112
109
115
123
136
128
129
138
145
140
142
136
145
139
140
138
144
155
152
138
113
93
82
85
88
91
93
93
96
97
98
97
94
97
97
94
97
101
100
98
97
95
99
130
126
126
126
129
127
124
119
112
99
82
65
58
56
61
69
67
71
73
73
76
73
69
72
77
77
74
77
82
86
85
88
88
89
94
93
93
96
96
96
100
96
98
94
95
96
99
99
100
99
103
102
103
104
101
101
102
99
100
98
101
101
100
102
103
101
100
102
107
109
107
118
109
106
111
110
110
123
131
133
129
131
136
140
144
140
137
135
128
130
139
141
140
147
152
156
158
135
109
92
82
90
94
93
96
96
93
94
93
97
95
93
96
92
95
94
93
96
130
127
129
126
129
128
125
117
109
100
81
67
57
57
59
63
64
71
73
73
73
72
73
75
74
76
76
77
79
81
84
91
88
91
94
94
96
92
95
95
99
99
97
96
95
98
97
99
98
101
98
101
102
103
100
101
103
98
99
101
102
97
100
101
102
100
100
110
107
102
110
115
107
103
102
116
114
118
122
127
125
126
139
132
142
144
138
140
133
135
142
139
142
140
148
153
152
157
162
150
119
87
84
89
94
91
90
94
93
94
94
94
93
93
94
94
93
93
130
128
128
129
128
128
124
118
110
100
83
62
52
55
57
61
65
65
71
73
73
69
71
72
75
73
74
77
82
81
88
89
88
90
92
90
91
94
97
96
96
95
98
99
98
96
99
98
100
100
97
102
101
100
100
101
98
99
98
96
99
111
108
100
96
91
105
110
106
105
107
109
104
108
117
116
108
109
115
121
121
123
126
125
138
142
132
135
147
139
136
148
139
149
150
153
155
161
155
153
159
146
100
81
82
87
86
94
92
93
91
93
94
96
90
93
90
94
132
130
128
127
127
129
124
118
110
97
78
63
57
53
58
60
67
67
66
69
73
74
74
72
72
70
76
75
76
80
81
83
87
89
90
90
91
95
94
93
93
91
90
92
97
96
94
98
100
98
100
101
100
100
97
99
104
95
113
113
113
109
93
87
89
95
97
99
98
104
102
104
103
115
106
115
111
116
123
109
125
136
129
127
137
126
131
140
140
138
140
142
158
152
150
160
150
155
161
160
154
162
165
123
83
84
82
88
90
86
90
92
90
92
89
90
92
92
131
131
133
128
130
128
123
119
110
101
80
65
55
51
54
58
63
63
65
66
67
69
71
69
70
73
78
75
76
80
83
82
85
89
89
86
91
91
91
94
92
94
97
98
95
95
95
96
100
98
98
98
94
97
97
105
126
111
112
106
97
91
92
93
94
89
97
99
101
96
91
95
105
103
105
114
117
117
117
117
126
123
127
134
131
130
134
144
141
142
142
146
147
145
148
155
152
155
157
155
159
158
161
163
149
106
76
80
85
85
86
90
92
90
89
89
88
91
134
130
132
131
131
129
126
118
111
98
84
61
52
51
52
56
59
61
67
65
66
68
73
72
68
75
74
74
76
77
81
84
85
86
88
87
88
91
93
93
94
93
91
95
94
98
99
95
98
97
95
97
94
120
124
97
89
97
93
86
86
90
89
88
90
93
102
96
100
93
96
99
105
104
103
109
112
106
112
123
123
118
116
122
129
134
132
136
143
150
155
144
151
147
151
156
155
149
154
157
157
160
160
161
160
155
134
85
75
82
84
85
87
84
90
85
87
90
133
130
130
129
130
129
125
116
108
98
83
61
54
49
56
54
60
64
64
65
66
70
67
66
71
68
70
75
74
80
79
81
82
85
86
85
88
91
89
91
90
91
91
95
92
93
94
97
97
96
94
93
102
132
81
73
93
86
87
89
86
88
88
90
85
96
100
92
103
94
92
96
99
99
102
104
104
109
108
118
112
116
119
136
139
132
133
143
148
149
140
156
151
145
155
155
147
155
160
157
164
164
160
160
161
154
150
160
104
73
78
79
81
85
84
85
87
86
132
130
129
126
127
128
123
117
108
98
80
61
50
47
55
56
58
62
66
65
67
71
67
70
68
68
72
73
72
76
78
81
82
85
87
86
87
88
88
91
91
90
90
96
94
93
95
93
93
96
92
93
115
130
64
80
88
88
94
89
86
88
89
89
85
91
97
99
94
89
93
92
96
104
101
102
109
106
104
111
118
122
128
131
138
139
139
141
145
142
148
147
151
146
152
151
157
158
156
159
162
161
167
163
157
156
159
163
167
130
80
75
79
81
79
83
83
84
134
130
129
128
130
128
124
115
108
98
81
62
51
46
52
57
60
59
65
66
65
71
68
70
67
70
71
71
75
73
78
78
82
87
84
84
89
89
88
88
87
89
88
91
93
95
94
97
94
102
93
102
92
82
84
85
87
91
88
87
91
86
90
91
92
94
102
100
97
97
96
99
105
99
93
99
106
97
111
114
116
122
124
128
134
137
135
137
141
146
144
145
147
152
158
155
162
159
163
159
163
165
163
159
160
161
161
163
164
170
151
85
64
75
74
77
77
80
134
133
131
131
128
126
122
114
108
95
77
58
52
48
55
57
56
55
63
65
67
63
64
68
65
66
73
70
72
72
76
78
82
83
83
87
84
87
88
91
90
89
92
91
93
95
96
96
95
93
91
109
89
82
86
90
86
82
83
84
87
84
94
94
95
96
92
90
97
101
95
99
101
97
99
104
102
105
107
107
107
117
117
126
120
130
133
131
143
146
147
152
150
157
160
159
153
163
158
165
172
163
166
161
160
160
165
163
159
153
157
165
92
61
60
68
73
76
135
132
129
127
132
129
121
113
106
96
81
61
50
49
51
54
60
68
65
64
64
72
78
67
65
68
66
71
71
75
79
79
79
79
85
85
86
86
86
91
89
93
86
91
93
92
93
93
97
94
112
135
87
85
90
83
81
83
85
89
88
87
92
89
91
95
90
92
95
98
97
109
98
102
107
97
100
103
105
106
115
111
116
120
126
120
134
142
141
145
151
150
158
152
157
163
161
157
163
168
163
163
168
156
159
158
149
147
156
165
184
188
200
195
168
77
61
69
135
132
131
128
127
127
123
116
107
97
80
60
50
50
51
59
59
65
65
64
65
69
65
64
66
66
71
72
73
76
76
77
78
82
83
85
86
83
86
91
88
90
90
91
93
93
92
97
94
92
121
89
85
87
80
79
80
84
89
90
83
90
90
92
97
91
92
99
94
95
91
97
102
100
101
97
103
99
99
116
112
114
111
119
122
139
137
145
147
154
152
152
150
153
151
158
157
165
159
166
163
160
156
152
153
159
168
183
192
191
192
190
196
203
209
177
73
62
133
133
133
132
130
126
121
117
108
98
82
60
52
50
51
56
59
65
67
64
67
67
68
66
68
70
72
75
73
74
75
79
83
83
86
83
87
89
87
88
89
92
91
94
94
94
92
97
94
101
102
85
82
78
81
83
80
89
89
89
85
87
90
91
89
88
93
94
94
91
93
99
96
99
106
101
100
100
112
107
109
116
122
122
122
134
135
148
152
144
149
154
144
152
158
152
154
164
161
155
147
146
159
166
185
188
192
182
195
187
183
192
188
195
200
199
130
52
133
133
129
133
128
126
121
116
105
93
82
58
50
50
51
59
62
63
64
65
67
69
65
70
67
72
67
68
68
72
74
79
78
82
88
82
83
83
89
88
90
91
90
93
92
92
94
91
95
101
86
80
79
79
82
84
93
91
90
85
82
98
90
89
90
89
92
83
95
92
91
99
99
96
94
103
100
104
107
101
99
113
107
120
130
124
139
146
149
151
155
145
162
160
147
156
166
147
139
133
154
180
181
197
192
182
185
186
181
185
178
177
189
187
201
195
205
103
135
134
131
129
129
123
120
112
106
92
80
60
50
47
51
56
61
65
64
66
68
67
70
64
67
67
68
73
73
76
77
80
80
84
84
82
88
86
86
92
89
91
90
93
92
94
94
94
100
85
82
79
83
82
85
86
84
83
89
90
91
84
86
88
90
85
87
89
94
96
99
102
105
99
110
99
101
101
106
102
106
112
114
126
123
136
136
149
150
143
152
161
156
159
155
139
135
139
160
179
199
191
186
182
184
186
189
184
180
180
191
177
174
187
183
198
194
193
134
131
132
130
127
126
121
113
105
92
79
59
51
48
53
58
60
63
65
65
67
70
70
71
70
72
68
70
71
73
78
78
82
82
84
84
88
88
88
91
87
93
90
92
93
94
94
95
88
79
78
74
80
81
84
86
82
90
92
90
88
93
87
86
86
88
91
94
101
96
97
108
106
101
105
101
104
108
106
109
105
114
116
121
123
130
139
139
146
148
144
150
153
144
130
132
155
179
193
193
189
183
179
168
184
181
183
182
176
180
179
183
178
175
184
181
200
193
130
131
130
128
130
125
122
111
107
94
79
61
52
50
53
56
63
63
61
65
68
71
73
71
73
69
71
70
73
76
78
81
79
85
86
86
88
88
89
93
86
93
91
93
86
93
102
91
80
77
78
76
82
84
84
81
86
87
87
79
86
87
81
83
86
87
96
96
93
100
100
103
99
103
109
105
111
106
111
111
118
110
108
116
127
121
128
152
141
145
151
146
121
122
143
172
185
183
188
174
175
175
182
187
171
186
186
181
183
172
180
171
184
185
194
183
203
203
131
133
131
130
129
129
120
116
106
92
77
62
53
49
53
58
61
62
64
65
67
69
69
71
70
65
70
69
66
71
76
74
85
81
85
86
88
90
89
92
92
90
89
92
87
98
93
78
77
80
80
84
83
82
84
89
92
83
87
87
88
80
70
85
94
97
94
91
91
101
111
106
109
107
104
108
107
114
112
112
107
111
113
113
120
131
141
137
147
142
125
119
137
173
185
174
176
178
172
181
189
192
185
171
179
172
175
176
170
181
181
193
186
198
184
192
196
204
132
133
130
129
126
124
124
116
105
90
78
62
52
48
50
56
59
63
68
63
68
67
69
70
68
69
67
70
70
73
73
78
84
83
84
87
86
91
90
88
89
90
90
91
94
95
81
81
80
80
83
80
80
82
85
86
84
90
83
78
78
82
88
88
98
99
98
97
103
101
103
102
108
110
116
111
114
111
102
101
106
108
114
117
125
126
137
140
129
115
114
142
180
183
180
181
168
172
184
181
185
177
174
171
173
165
169
186
182
183
186
187
179
180
171
176
182
181
130
131
131
130
125
126
121
113
106
91
78
63
53
48
49
53
61
63
64
65
63
71
72
71
70
70
69
69
71
73
74
77
80
82
85
89
84
87
89
89
89
90
91
91
94
88
83
79
76
79
81
80
78
84
87
84
85
83
83
84
84
89
91
92
91
97
91
100
100
104
98
100
104
106
107
113
112
103
109
107
109
110
112
119
121
135
134
114
103
127
163
173
178
172
169
181
185
174
176
174
168
163
160
173
175
184
179
172
174
173
168
171
173
179
183
184
181
187
130
131
129
130
127
127
121
113
105
90
77
63
51
49
53
58
60
64
63
67
65
70
66
66
69
68
69
74
71
74
74
76
80
86
87
86
85
88
89
89
88
92
89
93
96
80
78
87
85
81
81
80
83
83
84
88
86
86
88
83
90
84
85
93
104
95
100
91
104
108
104
105
99
108
103
112
106
108
97
105
102
111
114
114
130
129
111
103
148
163
161
165
168
182
165
180
178
179
160
167
171
164
179
154
172
169
174
176
177
181
182
183
180
181
189
180
187
181
132
131
128
128
128
127
120
115
106
91
80
61
51
47
51
54
59
64
67
64
69
67
67
70
68
68
69
70
71
72
77
79
82
81
85
82
85
88
89
87
89
89
88
108
86
79
82
76
81
85
83
78
83
78
86
87
81
87
88
91
85
92
96
98
95
100
95
103
99
106
102
103
101
105
109
104
104
97
102
103
105
105
108
112
115
102
116
155
171
168
159
168
160
165
171
160
169
169
169
171
172
169
166
159
176
170
181
190
182
178
178
182
185
186
180
181
183
189
130
131
130
130
129
124
121
114
101
91
79
60
51
46
48
56
60
60
64
64
67
65
69
68
68
69
69
69
67
73
76
77
83
83
85
85
86
90
89
88
86
86
100
96
80
77
72
74
83
89
82
82
81
87
85
85
87
84
85
86
92
94
101
95
100
103
110
112
111
103
104
109
106
101
99
102
99
102
101
100
106
108
100
95
105
124
150
162
169
166
171
157
167
161
155
164
164
161
165
161
163
171
172
180
169
185
173
172
185
184
179
177
186
183
172
184
183
184
132
127
128
127
127
123
120
113
104
92
75
60
50
47
50
54
58
57
63
63
67
69
70
69
70
71
70
70
69
73
78
79
81
83
81
84
88
84
87
88
80
120
115
84
68
74
73
79
78
81
83
82
83
78
85
83
82
82
86
91
88
93
92
102
101
99
110
103
106
96
96
105
106
105
107
104
96
96
92
96
99
95
91
123
154
142
148
161
162
180
155
166
155
161
164
161
164
143
154
167
169
178
179
172
173
170
185
181
169
180
187
175
185
183
177
181
179
180
127
127
127
126
125
125
120
113
106
93
78
62
52
50
51
55
62
63
61
63
68
67
66
68
65
67
68
70
73
71
73
77
84
82
82
84
82
88
88
82
81
130
116
73
77
77
76
75
78
80
76
82
84
89
83
82
88
85
89
88
93
88
101
102
94
112
108
107
91
99
106
102
108
101
104
96
96
90
91
98
88
95
137
144
162
151
155
151
166
144
164
153
172
155
156
148
155
162
167
171
172
171
176
179
180
167
181
191
169
186
179
182
180
180
182
180
173
167
130
130
126
125
127
124
123
114
103
91
81
64
47
46
49
53
55
59
65
65
66
67
65
68
69
68
69
71
70
71
76
79
79
83
83
84
83
82
84
81
94
158
103
76
72
77
75
75
79
79
85
79
80
85
84
91
87
90
89
91
91
93
92
103
110
108
99
93
100
101
104
104
104
106
100
97
98
93
82
82
107
144
134
153
156
175
149
149
144
157
159
163
147
146
147
171
165
172
166
162
168
168
175
177
183
180
166
181
184
177
180
179
170
166
173
172
186
189
129
129
130
125
125
123
122
114
104
90
79
62
49
47
50
53
56
60
64
61
66
64
65
68
70
67
69
69
73
72
75
79
79
79
82
80
82
83
83
76
129
152
88
73
76
77
71
78
78
75
80
83
83
80
86
90
92
88
92
92
94
98
97
103
99
99
103
101
101
100
103
101
108
100
96
95
94
79
88
113
147
149
152
150
156
147
157
152
160
147
144
136
150
152
164
167
171
167
168
175
160
169
173
172
183
177
173
180
177
175
166
170
181
171
172
181
182
180
128
126
124
125
126
126
123
114
105
94
77
63
51
50
50
56
59
60
63
66
68
67
71
67
67
64
67
69
69
71
80
77
81
80
81
81
82
84
82
78
170
135
85
69
73
74
73
73
79
80
85
83
79
84
74
87
85
95
96
97
100
102
104
93
103
112
105
105
100
101
110
104
94
73
94
90
80
105
136
138
141
167
160
150
138
138
140
167
156
142
136
153
155
161
159
157
173
173
164
168
172
164
169
167
167
179
173
161
165
170
180
181
179
188
173
167
181
181
129
128
125
125
124
124
123
112
107
95
80
62
48
44
49
52
54
57
58
62
64
62
65
63
64
64
64
68
68
72
71
78
78
76
79
81
82
80
74
113
182
123
79
70
73
75
75
81
75
83
86
77
86
83
84
87
89
82
96
96
94
98
105
105
93
99
98
91
101
108
103
90
81
92
78
88
115
128
141
149
143
163
141
142
144
139
145
143
138
143
158
154
152
147
162
171
161
160
167
151
171
163
160
172
169
165
155
170
171
177
178
181
174
179
186
179
171
184
129
128
128
128
126
126
124
114
107
94
76
61
49
47
49
52
52
58
61
62
66
67
65
66
65
62
66
68
70
70
73
75
77
78
80
80
82
80
68
163
161
123
86
73
71
75
76
80
79
78
81
85
83
92
87
89
88
89
96
98
100
98
93
97
90
84
98
101
107
96
97
94
85
77
93
125
141
141
150
151
132
140
141
143
142
147
127
135
146
157
150
151
159
158
157
166
161
163
165
168
156
164
162
156
158
163
170
180
180
176
175
182
177
172
168
179
168
170
130
132
130
127
124
125
123
115
105
93
78
60
48
48
48
51
54
60
61
65
69
68
71
65
69
65
69
68
67
72
74
75
79
76
84
81
81
76
79
184
156
117
86
71
70
74
68
80
74
82
93
80
86
81
91
82
85
95
100
105
90
91
95
74
76
102
105
104
98
95
94
85
82
105
131
130
146
142
140
136
130
121
140
147
137
134
156
146
145
138
154
155
169
150
165
155
164
153
166
166
168
155
151
162
158
173
178
171
169
175
180
172
167
174
171
168
174
167
130
130
125
129
128
125
122
114
105
92
80
60
47
47
48
51
52
59
64
63
69
66
63
71
68
68
72
68
75
69
78
75
82
85
83
80
82
72
127
185
147
109
76
68
69
75
76
74
81
80
87
74
81
91
83
88
101
103
95
85
85
88
71
88
102
105
96
90
96
84
83
78
97
137
137
141
143
136
130
129
132
140
136
132
136
149
148
150
144
140
153
168
162
166
148
153
150
165
152
164
142
148
171
174
170
167
168
171
161
160
172
175
169
171
180
176
175
177
132
131
133
127
129
125
121
115
106
94
78
62
46
47
48
50
53
57
61
64
68
73
72
72
70
70
71
70
74
76
76
81
80
82
84
80
79
72
146
174
139
111
75
69
70
73
72
75
79
81
76
77
89
83
90
101
91
99
93
88
86
84
99
110
95
88
93
104
91
81
84
109
132
138
143
142
132
127
127
139
141
135
132
150
153
142
144
144
158
150
155
156
152
155
157
157
152
147
148
136
160
162
167
172
172
168
169
171
175
162
160
175
176
171
172
177
187
175
132
131
129
130
130
127
123
117
108
92
76
62
50
47
48
52
56
61
61
64
67
70
67
69
73
72
73
73
75
77
79
78
78
82
85
83
80
72
169
171
138
109
75
69
74
75
74
80
71
67
72
86
85
95
93
94
91
89
90
85
89
91
101
98
96
98
101
91
79
82
109
137
136
134
135
129
127
134
132
130
126
141
152
145
147
147
136
148
155
152
150
149
146
150
150
155
144
133
142
161
159
156
164
169
174
169
165
165
170
168
171
165
169
178
171
159
159
147
132
131
130
131
129
131
125
116
108
95
77
65
50
49
51
50
56
59
70
66
67
72
72
72
70
75
69
70
72
74
81
81
81
82
82
79
81
88
174
166
132
99
78
71
76
75
74
79
68
79
91
85
87
93
89
92
84
81
95
92
85
101
100
97
96
97
94
73
83
124
121
117
143
125
116
124
137
142
123
128
139
138
148
149
136
152
153
141
144
146
157
142
149
143
155
131
131
141
157
165
157
150
156
161
159
171
173
164
167
168
163
172
165
176
181
135
125
164
131
133
131
131
130
132
124
118
107
95
78
64
51
50
52
56
61
62
64
66
67
71
75
74
72
72
73
71
75
76
81
80
86
80
86
85
80
101
175
168
117
91
80
68
66
71
73
73
81
84
89
86
88
78
91
86
82
98
94
96
99
93
96
84
87
95
71
88
116
124
132
123
112
122
117
121
127
114
131
146
140
139
135
144
150
143
157
143
135
147
143
153
146
147
126
139
154
155
140
157
161
157
146
160
163
160
167
164
164
175
173
167
173
169
133
133
158
156
130
134
129
131
131
132
128
118
108
96
82
64
52
49
53
54
57
62
66
70
70
69
71
71
73
72
72
73
75
76
77
78
84
82
83
82
75
124
183
155
109
90
82
67
64
67
71
81
82
72
83
81
71
88
85
84
93
93
95
100
93
90
83
92
88
76
92
119
129
122
119
121
109
109
133
115
106
126
145
141
139
144
146
142
139
137
136
146
147
137
148
151
141
128
132
145
156
152
149
149
149
151
160
149
155
156
159
164
159
174
177
176
160
138
128
159
162
167
130
130
134
132
134
133
131
121
111
95
82
67
52
52
54
56
60
62
65
67
72
72
74
73
71
72
72
72
75
73
76
81
80
84
79
80
70
132
186
134
107
95
86
74
72
73
75
79
73
76
66
83
87
91
86
81
96
94
99
92
84
88
88
89
80
97
113
123
120
125
110
113
123
121
94
113
133
129
128
142
141
146
133
136
133
129
132
146
154
155
135
127
127
149
146
148
142
147
158
142
145
143
141
156
146
142
161
170
165
160
162
156
133
156
165
165
155
149
131
133
134
133
134
132
129
124
112
99
80
67
54
54
51
53
61
59
63
68
70
70
70
70
71
69
69
70
71
76
77
76
79
78
79
72
71
145
183
129
110
100
90
75
77
73
73
71
73
64
81
74
81
72
70
94
88
90
85
77
84
95
88
78
108
120
117
113
121
110
115
110
122
96
118
132
127
130
125
133
145
131
136
129
128
143
131
144
139
143
122
121
146
141
141
138
139
146
145
153
135
153
143
132
159
151
161
151
141
126
135
144
153
159
144
142
148
153
133
135
134
135
136
134
131
123
114
97
85
67
56
52
54
57
61
61
67
65
67
69
68
69
68
69
69
71
68
71
74
78
79
76
79
79
78
170
174
138
115
98
89
77
77
78
74
82
74
76
75
82
81
82
89
89
93
84
84
95
99
89
84
103
121
117
121
116
108
112
115
119
85
116
128
122
121
131
138
118
125
133
128
137
131
136
149
124
136
117
128
143
140
148
147
147
150
139
144
138
148
141
150
143
150
155
162
145
134
146
156
151
157
151
135
157
159
168
131
133
137
134
133
135
134
123
113
101
85
67
56
49
51
54
57
62
65
67
67
67
68
69
69
69
71
70
69
73
75
77
76
80
77
70
83
187
171
136
121
101
96
80
72
72
79
75
74
77
85
82
85
87
85
91
81
93
98
93
90
80
100
113
114
118
117
111
107
113
100
94
113
118
115
128
132
127
123
125
122
127
136
148
147
127
132
129
118
142
141
141
141
134
140
149
144
138
142
138
133
145
139
159
161
150
142
146
151
150
151
151
157
158
158
155
157
164
132
136
137
136
136
135
133
124
114
101
81
68
54
52
51
58
59
62
65
66
70
72
72
72
70
69
70
73
71
74
76
79
78
77
75
73
93
199
167
142
118
113
90
89
79
78
79
72
70
77
81
83
87
96
92
92
93
93
102
89
71
99
115
116
108
112
105
115
116
94
98
108
119
114
124
115
127
113
118
126
129
138
139
128
145
135
117
123
125
150
142
134
138
144
139
133
145
147
139
139
135
137
145
147
136
147
152
147
147
154
149
136
148
156
159
161
150
155
136
137
138
138
138
136
133
125
115
104
81
66
53
50
50
55
61
63
63
65
69
67
66
69
70
68
66
68
69
70
72
82
77
79
73
71
104
200
157
154
122
116
102
100
96
92
78
78
77
79
80
84
84
71
85
88
89
96
87
81
96
112
112
115
112
97
111
125
91
100
117
122
113
119
124
116
102
123
116
132
148
138
134
135
110
122
131
146
141
124
132
138
137
137
147
144
131
147
142
140
137
136
134
135
146
143
154
159
149
148
155
148
144
152
158
164
159
151
136
137
138
137
136
137
131
122
112
100
82
63
55
49
51
57
62
61
65
68
70
70
70
69
69
67
66
67
71
75
75
70
88
74
74
67
116
196
160
141
121
109
107
104
90
94
83
83
78
75
82
80
75
76
94
88
86
87
82
95
112
110
112
112
105
114
112
86
92
112
115
119
117
123
116
100
109
111
122
128
126
142
129
124
115
131
142
144
139
139
125
134
145
139
140
148
142
134
131
134
141
131
131
137
139
145
139
134
142
145
152
159
145
143
159
154
155
146
135
137
137
136
135
133
132
121
112
101
83
65
56
50
53
56
60
61
65
67
67
72
70
68
69
68
69
73
70
72
73
77
75
74
73
67
122
196
158
145
129
124
105
113
100
97
81
78
76
74
75
76
83
82
91
85
74
80
103
116
102
112
106
106
121
102
84
91
113
118
112
115
120
115
110
108
122
125
106
117
125
116
118
120
137
138
132
130
136
137
133
131
126
139
143
133
132
134
126
130
127
136
140
133
130
129
136
135
138
144
139
154
154
147
143
149
146
141
137
134
134
135
132
132
130
124
115
101
82
61
54
49
54
56
62
62
63
67
69
72
68
67
70
73
68
71
74
74
74
78
79
80
74
68
121
193
152
137
128
129
110
110
108
106
87
91
82
60
68
83
75
93
85
83
75
96
114
108
109
95
102
116
110
77
93
109
119
118
121
112
108
107
121
121
116
106
112
111
124
111
114
139
135
142
134
131
126
135
136
137
138
125
128
144
122
130
135
130
134
125
126
117
118
132
137
144
142
135
140
136
153
151
142
135
141
140
136
134
135
133
134
132
129
123
114
103
84
63
54
48
53
57
62
64
66
68
64
67
70
73
69
67
68
71
70
74
73
74
74
76
72
66
121
181
154
150
124
129
124
113
110
102
108
91
74
71
72
64
85
85
80
79
105
110
102
107
105
101
112
99
83
87
105
108
112
118
113
108
102
119
110
123
106
124
124
113
104
132
128
122
132
124
133
139
138
126
136
132
131
126
122
126
146
131
127
137
128
121
125
135
135
136
133
136
143
134
137
133
140
150
137
137
130
137
135
136
136
132
132
133
129
123
116
102
85
66
54
49
55
55
62
62
65
64
67
69
71
69
70
71
71
69
71
74
73
72
72
73
70
60
138
179
146
143
129
127
118
113
108
106
103
84
75
71
70
77
81
77
73
101
111
107
101
96
104
106
92
82
91
105
113
108
111
115
104
111
109
102
107
104
123
122
115
112
117
120
128
129
115
119
128
129
140
131
123
125
127
128
134
133
126
137
116
113
128
133
136
128
134
127
137
138
138
135
131
133
131
130
130
135
137
125
133
136
136
134
132
133
132
124
114
104
85
61
53
53
50
58
61
64
64
64
68
68
68
69
67
65
71
69
73
72
70
73
76
72
72
60
163
167
151
139
140
114
125
111
101
102
105
88
83
75
79
78
75
86
105
110
106
106
98
100
104
95
83
93
112
110
112
119
107
105
108
110
91
104
116
116
113
104
103
120
126
127
121
120
127
126
115
122
119
127
116
133
131
136
134
140
118
112
120
126
133
135
124
132
136
127
126
130
132
133
127
132
122
127
124
125
131
124
135
133
135
130
133
134
130
124
115
104
85
65
54
47
57
58
61
64
68
66
66
66
69
65
70
66
68
71
68
74
71
71
72
73
71
53
174
173
148
154
141
129
110
128
111
108
109
97
93
87
73
72
76
105
91
109
104
102
103
109
83
82
92
102
115
112
115
108
109
108
102
84
100
113
111
126
102
107
124
123
124
121
127
115
121
143
128
127
123
112
99
104
123
119
126
115
121
127
131
132
124
126
130
123
125
133
133
120
131
127
136
128
128
120
137
120
125
120
135
133
136
132
133
134
130
125
116
104
86
64
55
50
51
54
60
61
65
66
66
67
67
68
67
66
71
69
69
72
70
75
74
71
70
58
190
173
169
148
145
137
131
123
116
107
123
103
91
81
74
71
100
112
102
90
101
95
106
89
89
92
105
110
99
109
111
104
108
94
84
100
105
119
113
101
103
116
126
127
122
123
113
112
106
106
109
113
107
101
86
92
85
64
61
127
132
126
129
125
124
121
124
126
128
124
129
125
120
128
124
127
128
126
118
128
106
122
136
136
135
135
135
135
131
127
119
105
89
63
55
50
52
56
60
61
63
68
66
69
67
67
65
68
70
71
69
71
73
74
75
71
65
61
194
178
164
163
147
138
133
127
123
114
120
118
103
84
64
88
99
99
99
93
99
108
84
85
92
100
117
104
107
107
108
105
85
93
103
106
105
117
100
102
112
113
118
117
96
71
75
75
75
66
68
81
115
104
89
112
124
110
63
89
110
122
131
131
132
114
95
102
104
120
125
124
124
100
85
61
109
121
115
105
104
131
137
137
136
136
133
134
135
127
117
103
90
66
55
50
49
58
57
62
64
64
69
71
71
68
66
67
71
70
73
72
73
74
73
70
65
52
185
179
172
159
161
128
134
124
121
127
124
114
110
79
94
93
95
99
92
96
99
98
78
88
102
109
107
112
100
107
102
84
97
97
99
111
109
88
102
115
116
117
106
87
55
99
106
102
93
90
87
65
62
62
90
129
131
131
115
87
68
71
69
74
105
134
129
136
109
69
107
84
120
84
107
75
39
107
113
105
146
155
138
134
137
134
136
134
130
128
119
104
88
67
55
50
50
56
62
63
65
66
66
66
66
69
67
68
72
70
69
73
73
75
71
69
67
61
186
186
161
177
147
143
124
129
116
117
111
123
105
97
88
91
87
86
95
100
91
69
88
101
112
109
105
102
107
94
82
89
104
99
101
104
100
99
111
113
113
116
98
77
100
103
99
83
86
77
66
71
63
44
92
128
123
133
105
89
89
88
85
76
51
50
72
75
89
82
55
53
41
44
49
72
39
56
122
160
144
118
137
137
134
138
135
135
135
125
118
108
88
65
53
49
55
55
58
64
64
63
65
70
71
69
70
71
71
70
71
72
74
76
75
71
66
58
174
187
172
162
163
151
146
124
113
102
118
120
119
84
82
86
88
88
97
84
70
92
97
105
105
104
104
102
94
83
95
100
99
102
97
94
95
113
106
105
110
92
72
110
107
92
67
59
62
53
49
52
51
48
80
98
116
100
88
81
69
65
58
46
56
65
47
47
39
41
42
45
36
40
35
36
34
67
151
134
111
138
139
137
137
137
136
136
134
127
119
107
91
65
53
48
50
57
58
64
66
66
69
74
73
71
70
68
68
72
71
70
72
76
73
73
69
60
139
190
174
166
165
161
144
128
110
96
96
121
94
76
80
82
93
89
84
70
86
96
108
103
101
99
109
88
88
99
99
89
103
105
92
87
109
111
106
111
88
72
104
106
89
59
71
86
75
69
98
80
57
52
71
68
72
90
69
59
50
40
40
58
65
50
41
48
48
36
37
37
38
45
39
54
104
145
112
102
142
168
136
138
139
137
137
136
134
131
121
109
91
65
53
49
48
55
56
63
62
60
65
66
69
73
69
74
68
69
71
70
73
73
75
73
68
60
101
204
172
173
177
168
145
122
96
83
101
91
88
86
79
84
84
99
69
86
96
102
102
102
100
103
83
81
98
100
101
101
97
93
92
110
107
105
109
90
74
89
98
94
68
71
98
70
68
89
91
65
48
58
52
50
73
61
55
49
41
50
61
52
36
49
48
39
45
40
37
33
39
37
28
129
144
98
118
142
155
159
135
137
136
136
136
136
133
128
119
109
89
68
56
53
51
56
59
64
64
64
66
67
69
67
69
68
70
69
71
72
71
71
74
74
71
65
85
190
184
176
164
169
150
127
105
87
88
114
109
85
90
91
83
68
85
91
99
111
102
100
97
89
84
92
97
101
97
99
93
89
98
106
106
100
96
74
85
96
99
81
70
95
77
77
65
54
40
39
41
42
44
56
62
70
65
68
63
78
57
67
53
41
36
41
65
36
36
41
34
55
132
130
86
112
163
164
151
149
137
135
135
133
135
135
134
125
121
107
91
66
56
48
53
53
59
61
64
68
69
70
68
69
71
70
69
70
70
74
73
72
73
70
70
66
79
177
172
180
169
177
147
125
106
100
113
113
104
109
93
85
74
72
86
96
103
99
106
103
87
84
95
92
102
97
94
94
90
104
104
104
103
90
72
81
94
102
99
75
67
57
46
54
49
49
45
40
44
42
51
64
69
70
55
49
54
59
64
64
50
53
40
49
63
33
37
35
76
140
122
82
113
153
167
155
142
143
135
137
137
135
137
133
134
128
119
109
95
70
54
48
48
59
59
61
66
64
70
67
71
72
72
70
70
68
69
71
71
73
76
73
73
69
64
148
192
164
173
165
162
117
118
110
94
117
116
100
102
72
76
80
95
104
97
105
97
89
80
95
92
96
98
101
89
84
101
108
101
100
97
84
70
101
100
89
70
56
44
43
56
58
47
44
39
40
40
44
77
67
74
46
37
42
44
65
46
61
59
38
35
51
49
38
29
75
147
102
90
132
162
161
160
145
144
152
135
135
134
134
132
133
132
129
120
107
94
68
54
48
51
51
59
58
63
67
65
68
69
67
70
71
71
69
70
71
71
72
74
78
70
69
60
113
181
185
162
164
152
152
120
87
105
116
110
108
73
76
89
94
106
101
107
97
87
82
89
97
96
90
98
97
88
94
104
103
106
102
106
87
69
101
82
55
49
40
46
65
54
36
36
42
39
41
38
71
74
69
52
38
37
41
75
52
50
63
44
36
31
60
60
38
99
143
97
97
148
171
163
156
152
147
144
147
136
137
133
134
135
133
132
127
118
109
92
70
53
49
49
56
54
61
65
64
68
68
66
71
70
65
70
66
77
69
70
71
76
75
72
69
68
73
190
174
168
165
164
152
137
129
96
116
102
97
76
86
92
109
105
103
94
84
80
89
93
97
96
99
85
88
82
100
88
88
99
105
112
92
59
86
49
42
40
51
53
42
33
36
41
38
36
36
42
80
58
56
36
40
47
78
65
50
55
39
38
40
32
72
44
107
134
90
104
138
167
165
151
148
144
143
146
149
136
135
133
135
134
133
135
128
118
108
91
69
54
49
48
56
58
59
59
66
66
69
72
68
70
68
68
70
71
73
72
75
75
78
77
71
72
60
181
184
170
164
168
164
137
127
143
109
117
71
78
94
106
104
105
107
87
73
87
95
98
94
91
95
90
85
101
93
95
82
55
67
97
90
53
44
34
40
51
48
37
39
36
43
40
34
37
41
63
62
42
41
39
41
63
58
71
72
43
31
68
40
39
98
125
112
90
105
154
163
163
163
149
144
144
145
145
142
142
134
135
135
135
136
131
130
120
109
93
74
54
51
48
54
59
59
66
65
68
66
69
65
69
69
69
71
72
71
74
76
77
81
78
76
72
64
87
205
183
180
168
140
127
153
113
127
84
71
91
101
88
106
101
89
76
94
92
95
89
90
86
88
87
96
106
102
102
83
91
78
45
59
44
51
48
49
47
45
40
40
46
50
35
35
36
47
57
48
37
42
42
62
53
61
75
48
36
72
67
27
71
115
111
79
110
155
171
164
161
156
153
146
143
148
143
142
134
137
135
135
135
135
137
129
121
109
97
73
55
47
49
53
57
62
61
63
67
69
67
70
70
66
67
73
68
69
71
74
79
80
79
77
76
73
54
153
200
181
173
152
128
135
149
123
72
73
107
100
93
92
91
74
85
94
96
90
88
89
93
92
97
104
95
95
86
69
37
44
53
44
40
40
47
50
40
38
36
37
69
41
35
35
39
51
52
35
37
40
42
49
42
46
59
37
48
111
38
43
100
81
78
124
165
160
166
161
157
158
151
149
146
144
147
146
137
138
135
137
137
136
136
128
118
109
94
76
54
49
48
53
57
63
66
62
64
67
68
70
68
67
71
71
69
71
72
73
77
77
77
79
78
75
71
69
172
191
183
155
145
134
152
131
86
94
98
97
99
92
79
82
94
97
99
94
90
87
82
93
106
93
80
74
72
70
61
56
49
43
40
50
45
36
34
33
36
51
76
34
35
34
41
51
51
33
37
39
43
38
35
53
60
30
61
75
59
93
63
78
100
159
166
159
163
162
150
151
146
142
141
144
145
144
136
138
135
139
135
136
130
132
121
111
95
74
52
46
50
52
55
59
62
63
66
66
67
69
64
70
70
72
69
71
75
76
79
81
80
79
77
75
77
70
99
190
183
153
161
153
146
90
84
112
84
93
98
85
86
90
97
92
92
104
89
98
90
91
80
110
101
92
65
61
63
51
45
45
55
52
42
35
36
33
36
66
64
31
36
47
38
46
48
41
45
51
43
52
38
63
56
43
73
64
117
90
54
128
128
155
159
148
158
151
148
148
141
142
145
140
142
141
136
138
136
136
136
134
135
131
123
113
97
78
54
46
48
52
53
55
62
65
68
61
66
68
70
71
70
73
72
68
73
75
78
81
79
89
80
79
76
72
68
165
174
165
157
162
153
85
111
92
85
89
82
80
90
98
93
99
85
78
74
81
91
80
80
56
65
66
55
41
50
45
51
55
59
48
40
38
36
34
40
54
56
33
39
50
37
35
41
37
44
53
55
52
52
66
53
51
68
58
72
88
121
132
135
147
138
143
147
150
144
135
134
140
140
137
135
142
138
137
137
133
138
139
135
133
120
111
97
72
54
47
50
53
59
63
60
63
67
72
67
69
69
69
70
69
70
70
73
77
77
82
80
79
78
81
77
75
65
122
201
184
163
167
152
118
99
92
89
81
75
77
87
95
87
82
76
79
92
106
98
86
96
100
73
45
40
48
42
53
46
53
52
46
37
38
35
36
41
46
52
44
43
41
35
36
35
37
35
35
35
36
32
44
41
54
58
45
79
83
102
108
136
143
134
148
143
140
134
133
132
141
135
137
139
137
139
136
138
135
137
137
135
131
123
110
97
77
57
47
49
52
55
60
62
63
70
67
67
65
69
67
70
71
66
72
72
77
79
78
82
82
80
83
82
76
64
120
192
188
177
164
154
122
89
88
93
87
74
86
92
88
76
85
92
103
104
94
97
61
70
82
71
51
51
44
40
40
40
53
48
49
45
39
40
39
46
35
56
62
50
35
35
37
36
36
36
35
37
35
34
43
74
73
61
47
113
102
135
134
145
143
146
150
142
133
127
130
132
138
142
141
138
120
137
138
137
138
136
136
137
133
121
109
97
78
54
47
49
52
54
60
63
63
69
69
70
70
66
66
70
73
66
68
73
76
77
81
83
85
79
83
83
76
68
118
194
187
192
168
140
87
82
97
87
84
88
95
81
74
81
98
103
100
106
97
80
62
68
63
50
54
50
39
36
35
36
41
48
42
46
58
38
36
49
33
47
74
60
33
34
36
35
37
37
33
37
34
38
59
86
51
84
73
134
113
144
144
142
147
154
143
139
130
122
124
127
131
147
140
125
122
137
134
137
138
135
137
135
131
122
112
96
75
54
48
47
50
59
62
61
66
68
72
73
69
70
69
70
70
72
71
72
79
82
82
84
84
86
87
82
79
70
108
188
190
184
168
106
77
80
93
85
85
93
87
75
77
97
101
99
97
82
87
83
49
42
39
35
51
42
36
36
36
37
37
55
44
41
52
38
37
48
36
34
63
91
55
37
40
36
35
34
36
37
38
88
83
61
89
139
89
116
135
142
146
146
155
152
143
130
125
121
127
132
140
147
137
125
138
133
136
136
135
137
137
137
132
124
111
97
73
56
48
49
52
55
65
62
66
70
70
70
69
71
73
67
69
69
74
76
76
79
79
83
83
84
82
82
78
73
87
200
187
187
145
80
76
78
82
83
87
87
78
85
98
92
88
83
91
83
84
81
44
36
34
45
43
36
34
35
35
35
34
41
55
44
48
48
38
51
39
37
36
84
68
50
54
39
36
34
34
32
91
112
77
96
141
129
111
82
132
146
134
155
151
154
130
130
124
123
125
142
147
132
127
139
145
136
139
135
137
136
139
137
132
126
113
97
77
55
59
52
54
57
57
62
67
68
71
73
72
69
74
70
69
69
72
74
75
78
79
78
86
87
84
88
84
80
67
168
195
186
116
75
82
78
73
82
80
76
93
95
88
95
97
67
80
78
71
53
41
36
42
54
40
36
36
38
36
35
35
33
40
51
42
43
45
52
39
43
33
80
62
34
37
36
35
37
28
104
113
75
116
147
133
131
125
91
112
124
132
155
142
144
134
133
131
126
134
142
121
123
135
143
149
136
136
138
135
137
139
135
133
123
112
99
79
57
50
49
52
58
61
63
67
69
69
67
69
71
70
71
71
74
69
76
74
78
99
90
84
83
84
89
80
80
74
113
211
184
109
80
86
91
83
82
73
84
102
95
92
70
58
43
41
50
41
56
60
40
42
54
37
34
34
42
37
41
33
34
37
42
42
40
39
57
36
50
34
46
86
33
33
35
33
33
88
118
79
109
141
135
129
131
127
96
134
124
133
158
151
132
131
133
130
136
132
118
125
137
141
142
150
133
136
134
135
137
135
137
133
123
115
97
72
60
51
51
54
59
60
61
65
67
69
69
70
69
72
72
72
70
75
72
72
98
114
82
84
84
88
87
86
85
81
73
184
189
101
87
84
86
89
73
84
96
97
89
104
82
75
68
52
53
34
35
37
33
46
53
35
32
41
42
38
36
35
39
40
32
39
38
41
57
63
78
39
31
94
40
34
33
32
71
117
89
109
139
138
147
138
135
132
97
121
134
146
155
154
130
132
133
128
126
117
127
131
139
143
143
155
135
136
134
137
137
137
137
133
125
114
102
74
59
47
53
53
57
61
64
69
71
73
68
71
73
72
73
72
75
72
76
73
96
78
79
88
86
88
86
85
88
82
80
106
210
119
89
89
80
82
90
97
90
89
99
93
82
71
65
49
37
37
36
35
35
42
51
36
34
39
36
38
37
41
39
34
38
44
33
44
51
60
54
58
46
114
60
34
29
69
117
88
99
140
137
144
147
148
143
138
105
116
129
150
166
148
130
130
127
124
124
131
133
137
145
146
146
157
136
138
139
138
139
136
139
134
124
113
100
77
57
47
52
55
59
65
67
65
67
70
72
72
72
70
68
70
74
72
76
79
93
83
81
81
90
92
91
89
93
90
87
88
167
138
92
87
77
90
100
86
97
100
85
86
65
65
49
38
38
52
36
34
34
36
60
39
45
35
36
40
32
40
37
36
42
41
35
36
50
54
46
41
32
63
81
26
60
121
88
97
132
130
136
138
160
147
149
120
103
109
141
158
155
132
124
121
129
127
128
132
137
143
146
145
154
148
138
138
138
136
137
139
137
131
125
112
97
77
58
49
50
54
57
57
60
65
71
73
71
71
74
73
71
70
74
74
76
75
84
93
85
88
91
92
95
92
90
91
88
86
115
127
95
87
86
101
98
99
97
97
95
76
54
39
36
32
62
55
31
35
36
33
48
51
37
36
50
38
39
39
35
34
44
44
36
37
40
36
55
34
37
30
87
55
121
87
89
129
129
127
134
147
151
149
151
137
107
95
153
153
130
123
116
124
129
130
134
136
143
142
144
148
146
158
136
137
136
138
135
138
137
131
122
111
98
74
56
49
50
54
57
60
64
64
69
71
72
72
75
76
72
72
73
74
78
80
84
84
82
83
86
83
83
82
80
80
95
106
84
96
77
89
96
101
104
92
81
78
64
52
36
43
41
32
46
44
35
39
37
36
31
42
43
51
48
35
35
40
34
38
45
40
45
37
37
38
72
34
36
35
45
93
93
85
123
129
128
128
126
133
151
152
147
147
129
120
144
131
130
123
129
131
135
134
133
137
143
146
146
147
153
150
134
137
135
136
139
139
142
136
127
115
98
76
61
52
51
53
54
62
62
67
70
72
69
73
73
77
72
71
76
77
78
80
79
84
89
92
90
91
92
87
88
89
96
74
56
87
88
79
100
99
85
82
76
92
70
53
34
63
35
31
53
52
39
38
37
38
39
41
61
48
39
35
34
39
33
41
45
33
53
45
34
44
49
34
35
35
80
86
61
121
135
131
129
131
125
130
153
151
146
149
133
139
139
125
122
126
133
139
138
140
139
144
146
151
150
154
152
153
137
137
140
140
140
138
140
135
126
114
97
77
60
49
51
54
57
60
65
69
67
74
71
71
72
72
73
72
74
77
75
78
82
84
89
87
88
94
91
94
90
87
143
93
102
129
173
87
88
75
92
83
83
89
61
36
44
61
33
32
50
68
37
34
38
36
48
60
57
46
38
35
36
42
32
46
38
33
57
46
37
52
36
40
31
73
116
64
126
144
130
139
138
128
116
134
151
151
153
147
145
139
109
85
95
107
119
126
133
138
143
145
148
152
152
154
150
148
135
138
139
138
138
140
137
137
124
112
101
77
59
48
50
52
58
60
62
69
67
72
73
70
70
72
68
72
71
74
80
77
84
87
85
90
89
90
93
87
123
108
115
79
62
79
83
98
82
81
93
83
93
76
40
44
53
48
31
33
54
64
33
36
36
40
44
37
38
35
34
35
34
36
34
46
32
37
61
43
45
45
45
33
54
116
75
100
145
132
135
148
142
118
116
134
155
158
155
151
127
85
56
64
78
80
90
91
99
112
128
140
147
150
155
154
148
150
135
138
139
137
138
139
137
136
125
113
102
78
59
49
49
55
57
59
61
67
67
72
71
71
69
72
70
70
75
72
77
78
84
85
86
91
87
91
90
98
176
88
64
31
33
28
35
110
158
108
81
69
67
44
40
49
60
35
34
36
79
61
29
36
35
37
35
36
36
36
33
38
35
36
41
55
41
44
48
51
46
37
35
39
108
76
78
138
133
138
148
161
136
116
123
145
153
159
154
119
89
90
100
102
89
80
71
60
57
66
78
97
118
138
152
151
150
152
133
138
140
140
139
141
139
137
127
116
102
78
57
49
47
54
57
58
67
65
71
70
70
73
70
71
75
71
73
75
77
79
83
85
85
90
86
90
92
103
141
83
36
42
38
42
86
113
115
102
65
48
48
43
38
58
50
31
35
48
59
69
30
33
34
38
40
36
39
41
34
39
33
36
35
47
55
47
34
57
42
34
36
89
103
73
148
135
138
144
163
152
124
115
133
149
165
153
108
98
113
120
125
115
133
120
104
85
65
57
53
54
60
81
119
140
145
142
134
138
138
137
141
138
143
135
129
117
104
80
58
48
48
53
54
60
66
65
67
72
71
70
71
69
71
72
72
75
73
78
80
85
84
85
91
101
108
103
101
110
57
36
34
30
66
87
69
58
50
45
51
39
53
50
37
36
48
55
32
81
31
34
35
44
36
34
36
49
38
36
35
33
33
32
46
76
35
49
41
34
48
123
92
130
146
130
145
151
165
136
117
125
148
164
146
97
88
101
101
113
115
87
106
134
113
101
96
77
74
65
59
57
74
115
134
138
136
139
141
140
138
140
140
137
127
116
103
83
59
49
47
55
58
61
64
66
71
70
73
73
73
72
70
70
70
75
75
76
80
78
80
83
108
123
121
111
112
114
65
53
73
38
74
93
95
48
69
41
38
42
64
47
39
40
63
42
31
72
46
46
34
47
34
32
37
59
49
33
34
36
36
34
33
45
50
37
34
37
110
84
119
148
127
138
151
165
157
131
123
140
162
133
80
75
91
91
86
90
92
72
60
112
88
77
80
89
89
82
86
82
82
97
119
126
138
139
143
138
139
142
140
132
126
115
103
81
61
52
47
54
54
60
64
63
69
71
69
71
68
74
74
73
73
74
73
75
82
80
88
98
113
121
124
118
115
140
141
124
128
97
71
61
72
43
36
35
46
63
61
43
49
50
63
33
33
48
52
39
33
51
33
32
34
47
61
32
33
35
36
37
35
33
38
43
29
95
98
93
142
135
137
148
162
166
149
136
132
161
119
68
62
70
65
64
52
50
50
45
43
54
45
45
47
77
80
104
103
102
96
104
112
121
134
138
139
139
140
141
137
136
126
114
104
87
60
50
49
54
59
63
67
68
70
75
78
72
73
73
70
72
72
74
71
71
94
106
112
106
111
116
116
116
116
116
78
83
111
62
34
39
33
35
37
46
54
81
43
42
56
45
63
33
31
49
43
34
40
52
33
32
36
35
75
66
39
32
35
35
38
38
35
32
64
117
86
137
136
142
137
153
166
151
146
135
158
114
55
59
57
49
39
44
39
39
40
42
39
38
38
41
36
37
53
105
111
104
104
104
113
119
136
140
141
139
141
141
138
136
127
115
109
83
60
50
49
54
57
61
61
67
72
69
71
74
73
74
71
71
71
71
70
90
124
159
135
106
113
114
119
115
118
111
83
47
50
53
35
34
37
61
65
51
71
52
57
52
48
61
70
31
34
46
36
45
37
62
36
38
33
34
33
75
75
48
36
34
35
35
33
41
104
79
118
153
132
133
143
155
166
149
146
152
114
58
50
52
43
39
40
38
38
39
37
38
44
84
83
49
38
37
36
45
95
103
100
103
110
117
139
142
141
142
142
143
140
136
126
116
107
84
63
48
51
53
59
61
63
64
69
73
71
70
69
73
69
70
67
65
72
166
142
169
105
106
113
116
122
113
82
88
65
41
45
39
32
38
69
55
39
52
47
32
49
56
47
80
55
32
31
43
35
41
38
60
39
35
34
34
34
36
55
49
54
44
36
33
33
69
103
81
156
132
137
135
144
159
156
151
151
110
58
57
56
44
38
38
43
37
43
39
36
54
55
140
163
133
80
40
56
57
75
97
91
97
106
112
139
143
141
140
141
141
143
136
122
114
101
84
62
52
50
54
60
61
66
71
72
70
71
71
70
73
65
67
72
65
75
154
151
150
91
100
112
117
122
96
73
111
51
47
33
34
35
57
49
34
42
52
34
34
45
69
48
71
38
33
33
32
34
37
32
53
50
39
34
34
36
34
37
33
38
36
40
50
39
117
78
154
144
137
143
145
154
163
154
160
123
65
72
57
43
40
37
42
65
39
53
52
33
70
44
125
171
167
153
78
51
99
70
90
87
90
103
109
137
143
140
138
141
141
143
134
125
117
105
83
59
50
52
56
61
68
68
70
69
72
71
69
70
74
71
73
71
69
43
119
93
140
164
125
108
110
117
86
104
88
33
47
29
47
60
46
34
37
49
41
37
37
54
61
44
83
40
34
32
35
34
34
34
50
57
40
35
35
36
36
37
35
33
34
33
35
68
80
97
135
117
110
129
151
164
157
159
135
78
79
82
70
59
53
40
54
72
76
44
56
62
50
65
169
178
173
164
119
57
86
84
83
85
89
101
109
137
141
141
143
143
144
143
138
128
115
104
89
63
54
54
57
65
68
69
73
78
74
74
74
73
73
81
73
63
51
33
88
102
55
120
178
178
141
92
52
35
33
34
37
37
56
49
38
39
47
41
45
43
43
57
74
49
99
39
30
34
36
36
34
33
39
57
37
37
36
33
37
39
35
34
35
32
51
97
63
125
109
137
146
159
165
160
156
133
79
84
90
100
99
99
82
52
46
76
89
81
55
56
83
153
175
178
170
145
116
112
85
99
90
95
96
99
106
140
140
146
143
145
144
144
138
129
117
107
87
67
54
54
58
66
73
71
74
75
78
77
75
75
76
74
49
46
34
45
81
146
109
162
219
199
115
52
34
34
35
31
34
56
51
46
49
39
52
50
50
59
45
61
61
49
91
49
34
37
34
36
32
35
35
39
33
42
37
33
36
35
35
34
33
39
105
71
113
148
126
146
147
161
161
158
117
82
92
97
96
100
112
112
106
88
73
66
81
109
114
122
136
154
159
165
157
141
118
115
88
105
100
93
95
102
105
139
144
144
145
145
144
144
135
127
119
104
85
69
57
56
62
65
72
77
79
79
77
77
91
65
38
38
37
68
100
120
118
147
145
170
129
67
33
40
60
29
32
49
80
83
58
34
34
39
48
50
57
49
56
68
77
43
105
61
48
38
34
32
31
38
34
35
36
38
37
37
34
37
33
32
34
74
86
82
168
135
135
150
159
163
163
124
73
87
100
102
105
102
117
114
114
111
91
91
100
79
88
95
107
120
125
117
137
138
141
144
121
106
99
101
97
104
108
139
142
143
144
143
146
147
139
135
121
108
90
68
56
58
62
69
72
74
80
80
83
76
110
42
37
44
60
127
115
100
108
102
120
109
43
37
39
32
62
63
63
72
42
44
41
33
36
48
55
43
62
49
52
70
79
64
98
52
49
49
35
32
33
37
32
35
34
37
36
34
39
37
35
35
42
105
70
136
141
129
142
154
166
165
125
66
81
98
106
111
111
111
114
117
114
117
114
117
102
84
93
78
101
96
83
69
109
114
127
125
114
99
96
99
106
104
104
137
140
141
145
146
146
148
141
134
123
106
90
70
54
58
62
67
74
79
78
82
82
80
107
53
48
76
97
108
109
94
68
79
84
41
41
41
36
36
37
83
74
30
56
65
42
38
39
41
58
40
65
46
45
66
68
79
81
66
72
38
32
34
34
34
34
35
36
36
34
37
36
35
34
28
93
96
89
142
127
139
145
159
168
124
64
70
92
104
110
113
118
119
120
121
118
116
117
120
114
114
112
108
107
111
110
117
122
123
122
121
124
103
101
107
109
107
105
138
142
147
144
148
148
149
143
135
125
108
94
69
56
55
60
68
73
78
80
79
83
79
85
125
99
121
120
112
91
57
38
41
45
47
35
33
35
35
35
44
91
89
91
79
77
45
41
36
59
45
61
71
46
61
53
72
76
89
60
36
38
33
35
35
34
34
39
37
36
36
38
37
30
59
122
81
132
138
138
145
157
172
134
61
70
88
96
100
114
116
120
126
121
122
125
130
126
120
109
121
116
121
121
123
130
133
138
132
130
133
123
105
106
110
111
107
103
138
140
142
147
149
146
149
143
135
123
108
96
72
58
55
66
67
71
74
78
81
81
82
79
104
117
126
102
75
66
43
35
42
55
42
33
32
45
35
44
38
52
70
67
58
49
40
47
37
51
51
41
79
79
47
55
60
51
62
45
43
43
39
33
33
33
33
34
35
37
36
36
34
33
117
83
91
133
144
153
159
174
156
67
64
82
91
97
106
110
116
122
125
126
132
138
136
135
142
139
133
136
135
141
144
140
137
133
142
137
133
114
111
113
117
107
110
108
135
143
143
146
145
145
147
143
133
122
111
92
66
56
56
61
66
70
76
79
78
80
79
83
80
91
79
65
70
51
46
51
60
40
36
34
38
48
41
58
59
68
36
36
53
44
35
35
40
43
62
45
32
77
99
79
38
55
62
74
33
31
33
35
34
32
34
36
35
36
36
35
32
79
99
74
119
138
148
151
164
159
68
47
73
90
96
99
102
115
116
124
124
132
136
143
139
137
146
143
144
136
137
140
144
137
139
136
137
130
126
116
111
117
107
110
108
106
